<?xml version="1.0" encoding="utf-8"?>
<!-- Generator: Adobe Illustrator 16.0.4, SVG Export Plug-In . SVG Version: 6.00 Build 0)  -->
<!DOCTYPE svg PUBLIC "-//W3C//DTD SVG 1.1 Tiny//EN" "http://www.w3.org/Graphics/SVG/1.1/DTD/svg11-tiny.dtd">
<svg version="1.1" baseProfile="tiny" id="Layer_1" xmlns="http://www.w3.org/2000/svg" xmlns:xlink="http://www.w3.org/1999/xlink"
	 x="0px" y="0px" width="342px" height="120px" viewBox="0 0 342 120" xml:space="preserve">
<g>
	<path fill="#FFFFFF" d="M235.438,1.109v34.394h-1.622c-1.366-10.924-3.328-19.273-5.889-25.049
		c-2.561-5.774-5.52-8.663-8.876-8.663c-2.391,0-4.34,1.167-5.847,3.5c-1.508,2.333-2.262,5.32-2.262,8.961
		c0,2.39,0.198,4.596,0.598,6.614c0.396,2.021,1.18,4.638,2.347,7.852c1.166,3.215,2.488,6.358,3.969,9.431
		c1.479,3.072,4.011,8.052,7.596,14.936c5.121,9.673,8.449,17.353,9.986,23.044c1.706,6.145,2.56,11.721,2.56,16.727
		c0,7.398-1.353,13.516-4.054,18.35c-2.703,4.838-6.133,7.254-10.284,7.254c-2.049,0-3.771-0.469-5.164-1.408
		c-1.395-0.938-3.087-2.773-5.077-5.504c-1.594-2.275-2.789-3.414-3.585-3.414c-1.024,0-1.749,0.627-2.177,1.877
		c-0.426,1.254-0.754,3.785-0.98,7.598h-1.537V76.896h1.537c1.023,9.445,2.701,17.838,5.034,25.176
		c3.13,9.846,7,14.766,11.607,14.766c2.446,0,4.409-1.266,5.889-3.797s2.22-5.988,2.22-10.369c0-5.746-1.68-12.943-5.035-21.594
		c-2.163-5.348-5.634-12.859-10.412-22.532c-2.676-5.234-4.823-9.928-6.444-14.082c-1.622-4.153-2.788-7.951-3.499-11.394
		c-0.712-3.442-1.066-6.785-1.066-10.028c0-4.494,0.597-8.463,1.792-11.906c1.194-3.441,2.829-6.13,4.907-8.065
		c2.076-1.934,4.451-2.902,7.126-2.902c3.471,0,6.657,1.992,9.56,5.974l1.366,1.877c0.737,0.968,1.393,1.451,1.961,1.451
		c0.74,0,1.238-0.47,1.494-1.409c0.257-0.938,0.47-3,0.641-6.188V1.109H235.438z"/>
	<path fill="#FFFFFF" d="M288.877,1.109v34.565h-1.622c-1.081-12.574-2.931-21.337-5.547-26.287
		c-1.365-2.503-2.931-4.225-4.694-5.164c-1.765-0.938-4.58-1.436-8.449-1.494v50.866c2.788-0.113,4.951-0.853,6.486-2.219
		c1.537-1.365,2.688-3.612,3.457-6.742c0.768-3.129,1.322-7.965,1.664-14.509h1.622v50.782h-1.622l-0.085-2.477
		c-0.456-6.939-1.011-11.947-1.665-15.02c-0.654-3.074-1.736-5.192-3.243-6.359c-1.508-1.166-3.713-1.805-6.614-1.92v60.853
		c3.414-0.285,6.103-1.055,8.065-2.305c1.963-1.252,3.627-3.357,4.992-6.316c2.844-6.145,4.637-16.303,5.378-30.469h1.621v40.711
		h-36.614v-1.621h6.06V2.73h-6.06V1.109H288.877z"/>
	<path fill="#FFFFFF" d="M339.758,1.109v34.565h-1.622c-1.082-12.574-2.932-21.337-5.547-26.287
		c-1.366-2.503-2.932-4.225-4.695-5.164s-4.581-1.436-8.448-1.494v50.866c2.787-0.113,4.949-0.853,6.485-2.219
		c1.537-1.365,2.688-3.612,3.457-6.742c0.769-3.129,1.323-7.965,1.664-14.509h1.622v50.782h-1.622l-0.085-2.477
		c-0.456-6.939-1.01-11.947-1.664-15.02c-0.655-3.074-1.737-5.192-3.243-6.359c-1.509-1.166-3.713-1.805-6.614-1.92v60.853
		c3.413-0.285,6.102-1.055,8.065-2.305c1.962-1.252,3.626-3.357,4.992-6.316c2.844-6.145,4.637-16.303,5.377-30.469h1.621v40.711
		h-36.613v-1.621h6.06V2.73h-6.06V1.109H339.758z"/>
</g>
<g>
	<rect x="104.997" y="57.685" fill="#FFFFFF" width="91.367" height="1.987"/>
</g>
<g>
	<path fill="#FFFFFF" d="M22.246,99.76c2.617,1.992,5.607,2.992,8.972,2.992c4.112,0,7.632-1.467,10.562-4.395
		c2.927-2.928,4.393-6.512,4.393-10.746v-4.113c-4.612,2.742-9.597,4.113-14.955,4.113c-8.224,0-15.267-2.928-21.123-8.787
		C4.236,72.969,1.31,65.928,1.31,57.701c0-8.225,2.927-15.264,8.786-21.123c5.856-5.856,12.898-8.786,21.123-8.786
		c5.357,0,10.342,1.374,14.955,4.113v-4.113h14.954v59.819c0,8.225-2.929,15.264-8.786,21.123
		c-5.859,5.855-12.898,8.785-21.123,8.785c-6.607,0-12.588-1.996-17.945-5.982L22.246,99.76z M20.656,46.953
		c-2.929,2.93-4.393,6.513-4.393,10.748c0,4.239,1.464,7.823,4.393,10.749c2.927,2.93,6.449,4.393,10.562,4.393
		c4.112,0,7.632-1.463,10.562-4.393c2.927-2.926,4.393-6.51,4.393-10.749c0-4.235-1.466-7.818-4.393-10.748
		c-2.929-2.926-6.449-4.393-10.562-4.393C27.105,42.56,23.583,44.026,20.656,46.953z"/>
	<path fill="#FFFFFF" d="M83.184,80.133c-6.232-6.23-9.346-13.707-9.346-22.432c0-8.721,3.114-16.198,9.346-22.431
		c6.23-6.23,13.708-9.346,22.432-9.346c8.722,0,16.199,3.116,22.432,9.346c6.23,6.233,9.347,13.71,9.347,22.431
		c0,8.725-3.117,16.202-9.347,22.432c-6.232,6.232-13.71,9.346-22.432,9.346C96.892,89.479,89.414,86.365,83.184,80.133z
		 M93.746,45.831c-3.303,3.304-4.954,7.261-4.954,11.87c0,4.612,1.65,8.571,4.954,11.87c3.301,3.305,7.258,4.955,11.87,4.955
		c4.609,0,8.566-1.65,11.87-4.955c3.301-3.299,4.953-7.258,4.953-11.87c0-4.609-1.652-8.566-4.953-11.87
		c-3.304-3.3-7.261-4.954-11.87-4.954C101.004,40.877,97.047,42.531,93.746,45.831z"/>
</g>
</svg>
